<svg width="24" height="24" viewBox="0 0 24 24" fill="none" xmlns="http://www.w3.org/2000/svg">
<path d="M15.1167 3C14.8986 3.38936 14.7042 3.79146 14.5347 4.20412C12.8686 3.94146 11.1715 3.94146 9.50538 4.20412C9.33583 3.79146 9.14148 3.38936 8.92339 3C7.35398 3.26732 5.8283 3.74605 4.38825 4.42305C1.81314 8.12768 0.645313 12.6253 1.09396 17.1101C2.77211 18.3677 4.65559 19.3269 6.66131 19.9453C7.11802 19.3439 7.52563 18.7069 7.8802 18.0406C7.22581 17.8001 6.59685 17.4957 6.00245 17.132C6.16548 17.0239 6.31969 16.9031 6.46365 16.7708C8.19695 17.6031 10.0961 18.0353 12.02 18.0353C13.9439 18.0353 15.8431 17.6031 17.5764 16.7708C17.7301 16.9021 17.8839 17.0225 18.0376 17.132C17.44 17.4928 16.8116 17.8005 16.1599 18.0515C16.4997 18.733 16.8964 19.3848 17.3458 20C19.349 19.3837 21.2292 18.4243 22.9022 17.1648C23.3616 12.6792 22.1928 8.17792 19.6079 4.47778C18.184 3.78677 16.6734 3.28972 15.1167 3V3ZM8.37434 14.5486C7.82484 14.5093 7.31198 14.2593 6.94343 13.8511C6.57489 13.4429 6.37931 12.9082 6.39777 12.3593C6.37653 11.8097 6.57114 11.2735 6.94024 10.8647C7.30934 10.4558 7.82382 10.2066 8.37434 10.17C8.92486 10.2066 9.43935 10.4558 9.80844 10.8647C10.1775 11.2735 10.3722 11.8097 10.3509 12.3593C10.3722 12.9089 10.1775 13.4451 9.80844 13.8539C9.43935 14.2628 8.92486 14.512 8.37434 14.5486V14.5486ZM15.6657 14.5486C15.1162 14.5093 14.6033 14.2593 14.2348 13.8511C13.8663 13.4429 13.6707 12.9082 13.6891 12.3593C13.6679 11.8097 13.8625 11.2735 14.2316 10.8647C14.6007 10.4558 15.1152 10.2066 15.6657 10.17C16.2173 10.2039 16.7334 10.4523 17.1031 10.8618C17.4727 11.2712 17.6664 11.809 17.6423 12.3593C17.6664 12.9096 17.4727 13.4474 17.1031 13.8569C16.7334 14.2663 16.2173 14.5147 15.6657 14.5486V14.5486Z" fill="white"/>
</svg>
