<svg width="24" height="24" viewBox="0 0 24 24" fill="none" xmlns="http://www.w3.org/2000/svg">
<path d="M14.9168 9.08306C16.5277 10.694 16.5277 13.3058 14.9168 14.9167C13.3059 16.5276 10.6941 16.5276 9.08318 14.9167C7.47227 13.3058 7.47227 10.694 9.08318 9.08306C10.6941 7.47215 13.3059 7.47215 14.9168 9.08306" fill="white"/>
<path d="M16.8125 1H7.1875C3.77551 1 1 3.77551 1 7.1875V16.8125C1 20.2245 3.77551 23 7.1875 23H16.8125C20.2245 23 23 20.2245 23 16.8125V7.1875C23 3.77551 20.2245 1 16.8125 1ZM12 17.5C8.96734 17.5 6.5 15.0333 6.5 12C6.5 8.96668 8.96734 6.5 12 6.5C15.0327 6.5 17.5 8.96668 17.5 12C17.5 15.0333 15.0327 17.5 12 17.5ZM18.1875 6.5C17.8078 6.5 17.5 6.19217 17.5 5.8125C17.5 5.43275 17.8078 5.125 18.1875 5.125C18.5672 5.125 18.875 5.43275 18.875 5.8125C18.875 6.19217 18.5672 6.5 18.1875 6.5Z" fill="white"/>
</svg>
