<svg width="24" height="24" viewBox="0 0 24 24" fill="none" xmlns="http://www.w3.org/2000/svg">
<path fill-rule="evenodd" clip-rule="evenodd" d="M13.4881 10.5907C14.7236 9.16749 16.1209 8.44564 17.8876 8.53277C20.7619 8.67432 22.7848 10.679 22.9302 13.8087C23.0579 16.5652 22.9674 19.3314 22.9869 22.0927C22.9918 22.7553 22.682 23.0029 22.0473 22.9869C21.197 22.9654 20.3437 22.9457 19.4955 22.9953C18.654 23.0446 18.334 22.7062 18.3484 21.8688C18.3816 19.9941 18.3611 18.1181 18.3575 16.2427C18.3563 15.7316 18.3627 15.2181 18.3228 14.7094C18.1999 13.1351 17.2778 12.1849 15.9107 12.1956C14.5056 12.2064 13.3688 13.3377 13.3441 14.8429C13.3078 17.0587 13.3297 19.2754 13.325 21.4917C13.3218 22.9757 13.3205 22.9757 11.8581 22.9853C8.69558 23.0057 8.69678 23.0057 8.69558 19.8366C8.69438 16.5974 8.71792 13.3574 8.67083 10.1189C8.65725 9.18109 8.97023 8.80553 9.90351 8.89318C10.4432 8.94398 10.9917 8.89886 11.5365 8.9011C13.1621 8.90833 13.1621 8.90919 13.4881 10.5907ZM1.33024 15.8843C1.33024 13.9416 1.36582 11.998 1.3146 10.0569C1.29105 9.14906 1.63704 8.8348 2.5105 8.8887C3.35784 8.9407 4.21137 8.91797 5.06112 8.89989C5.69946 8.88663 5.98804 9.14699 5.98563 9.80737C5.97051 13.8972 5.96845 17.9865 5.97635 22.0763C5.97755 22.731 5.69499 23.0008 5.05235 22.9872C4.13437 22.9676 3.21467 22.9604 2.29738 22.9909C1.59321 23.0145 1.32869 22.7129 1.33626 22.0186C1.3586 19.974 1.34416 17.9288 1.34416 15.8842C1.33987 15.8843 1.33505 15.8843 1.33024 15.8843ZM3.60947 6.87246C2.11622 6.86609 1.01021 5.83584 1.00007 4.44174C0.989757 3.0714 2.13135 2.00103 3.60345 2C5.20532 1.99914 6.29019 2.98823 6.28384 4.44346C6.27696 5.92538 5.22681 6.87883 3.60947 6.87246Z" fill="white"/>
</svg>
