<svg width="24" height="24" viewBox="0 0 24 24" fill="none" xmlns="http://www.w3.org/2000/svg">
<path d="M23 5.15652C22.1732 5.51704 21.2988 5.75537 20.404 5.86408C21.348 5.29728 22.0554 4.4056 22.395 3.35445C21.5079 3.88519 20.5368 4.25913 19.524 4.46001C18.847 3.72213 17.9455 3.23095 16.9608 3.06352C15.9761 2.89608 14.964 3.06187 14.0832 3.53486C13.2023 4.00786 12.5026 4.76131 12.0938 5.67706C11.6849 6.59281 11.59 7.61905 11.824 8.59484C10.0304 8.50366 8.27589 8.03426 6.67452 7.21715C5.07316 6.40003 3.66073 5.25347 2.529 3.85195C2.13205 4.54864 1.92347 5.33764 1.924 6.14048C1.92259 6.88605 2.10464 7.62041 2.45393 8.27816C2.80322 8.93592 3.30892 9.49666 3.926 9.91046C3.20878 9.89085 2.50687 9.69742 1.88 9.34662V9.4019C1.88538 10.4465 2.24959 11.4573 2.91105 12.2631C3.5725 13.0689 4.49058 13.6204 5.51 13.8242C5.11758 13.9442 4.71016 14.0075 4.3 14.0121C4.01608 14.0088 3.73286 13.9829 3.453 13.9347C3.7433 14.8333 4.30509 15.6187 5.06018 16.1814C5.81528 16.7442 6.72613 17.0564 7.666 17.0745C6.07892 18.3297 4.11947 19.0147 2.1 19.0203C1.73231 19.0216 1.36491 18.9994 1 18.954C3.06187 20.292 5.46469 21.0023 7.919 20.9993C9.61266 21.017 11.2928 20.6953 12.8614 20.053C14.43 19.4108 15.8555 18.4608 17.0547 17.2586C18.2539 16.0564 19.2028 14.6261 19.8458 13.0513C20.4889 11.4764 20.8132 9.78855 20.8 8.08628C20.8 7.89833 20.8 7.69933 20.8 7.50032C21.6632 6.85336 22.4076 6.06024 23 5.15652V5.15652Z" fill="white"/>
</svg>
